<svg width="41" height="40" viewBox="0 0 41 40" fill="none" xmlns="http://www.w3.org/2000/svg">
<path d="M2.25 35V30.3333C2.25 29.4167 2.48611 28.5556 2.95833 27.75C3.43056 26.9444 4.08333 26.3333 4.91667 25.9167C6.33333 25.1944 7.93056 24.5833 9.70833 24.0833C11.4861 23.5833 13.4444 23.3333 15.5833 23.3333C17.7222 23.3333 19.6806 23.5833 21.4583 24.0833C23.2361 24.5833 24.8333 25.1944 26.25 25.9167C27.0833 26.3333 27.7361 26.9444 28.2083 27.75C28.6806 28.5556 28.9167 29.4167 28.9167 30.3333V35H2.25ZM5.58333 31.6667H25.5833V30.3333C25.5833 30.0278 25.5072 29.75 25.355 29.5C25.2028 29.25 25.0011 29.0556 24.75 28.9167C23.75 28.4167 22.4656 27.9167 20.8967 27.4167C19.3278 26.9167 17.5567 26.6667 15.5833 26.6667C13.61 26.6667 11.8394 26.9167 10.2717 27.4167C8.70389 27.9167 7.41889 28.4167 6.41667 28.9167C6.16667 29.0556 5.96556 29.25 5.81333 29.5C5.66111 29.75 5.58444 30.0278 5.58333 30.3333V31.6667ZM15.5833 21.6667C13.75 21.6667 12.1806 21.0139 10.875 19.7083C9.56945 18.4028 8.91667 16.8333 8.91667 15H8.5C8.25 15 8.04889 14.9239 7.89667 14.7717C7.74445 14.6194 7.66778 14.4178 7.66667 14.1667C7.66556 13.9156 7.74222 13.7139 7.89667 13.5617C8.05111 13.4094 8.25222 13.3333 8.5 13.3333H8.91667C8.91667 12.0833 9.22222 10.9583 9.83333 9.95833C10.4444 8.95833 11.25 8.16667 12.25 7.58333V9.16667C12.25 9.41667 12.3267 9.61833 12.48 9.77167C12.6333 9.925 12.8344 10.0011 13.0833 10C13.3322 9.99889 13.5339 9.92278 13.6883 9.77167C13.8428 9.62056 13.9189 9.41889 13.9167 9.16667V6.91667C14.1667 6.83333 14.4306 6.77111 14.7083 6.73C14.9861 6.68889 15.2778 6.66778 15.5833 6.66667C15.8889 6.66556 16.1806 6.68667 16.4583 6.73C16.7361 6.77333 17 6.83556 17.25 6.91667V9.16667C17.25 9.41667 17.3267 9.61833 17.48 9.77167C17.6333 9.925 17.8344 10.0011 18.0833 10C18.3322 9.99889 18.5339 9.92278 18.6883 9.77167C18.8428 9.62056 18.9189 9.41889 18.9167 9.16667V7.58333C19.9167 8.16667 20.7222 8.95833 21.3333 9.95833C21.9444 10.9583 22.25 12.0833 22.25 13.3333H22.6667C22.9167 13.3333 23.1183 13.41 23.2717 13.5633C23.425 13.7167 23.5011 13.9178 23.5 14.1667C23.4989 14.4156 23.4228 14.6172 23.2717 14.7717C23.1206 14.9261 22.9189 15.0022 22.6667 15H22.25C22.25 16.8333 21.5972 18.4028 20.2917 19.7083C18.9861 21.0139 17.4167 21.6667 15.5833 21.6667ZM15.5833 18.3333C16.5 18.3333 17.285 18.0072 17.9383 17.355C18.5917 16.7028 18.9178 15.9178 18.9167 15H12.25C12.25 15.9167 12.5767 16.7017 13.23 17.355C13.8833 18.0083 14.6678 18.3344 15.5833 18.3333ZM28.0833 25L27.8333 23.75C27.6667 23.6944 27.5072 23.6322 27.355 23.5633C27.2028 23.4944 27.0567 23.39 26.9167 23.25L25.75 23.6667L24.9167 22.1667L25.8333 21.3333V20.3333L24.9167 19.5L25.75 18L26.9167 18.4167C27.0278 18.3056 27.1667 18.2083 27.3333 18.125C27.5 18.0417 27.6667 17.9722 27.8333 17.9167L28.0833 16.6667H29.75L30 17.9167C30.1667 17.9722 30.3333 18.0417 30.5 18.125C30.6667 18.2083 30.8056 18.3056 30.9167 18.4167L32.0833 18L32.9167 19.5L32 20.3333V21.3333L32.9167 22.1667L32.0833 23.6667L30.9167 23.25C30.7778 23.3889 30.6322 23.4933 30.48 23.5633C30.3278 23.6333 30.1678 23.6956 30 23.75L29.75 25H28.0833ZM28.9167 22.0833C29.25 22.0833 29.5417 21.9583 29.7917 21.7083C30.0417 21.4583 30.1667 21.1667 30.1667 20.8333C30.1667 20.5 30.0417 20.2083 29.7917 19.9583C29.5417 19.7083 29.25 19.5833 28.9167 19.5833C28.5833 19.5833 28.2917 19.7083 28.0417 19.9583C27.7917 20.2083 27.6667 20.5 27.6667 20.8333C27.6667 21.1667 27.7917 21.4583 28.0417 21.7083C28.2917 21.9583 28.5833 22.0833 28.9167 22.0833ZM31.9167 16.6667L31.5833 14.9167C31.3333 14.8333 31.1044 14.7294 30.8967 14.605C30.6889 14.4806 30.5011 14.3344 30.3333 14.1667L28.5833 14.75L27.4167 12.75L28.8333 11.5C28.7778 11.3611 28.75 11.25 28.75 11.1667V10.5C28.75 10.4167 28.7778 10.3056 28.8333 10.1667L27.4167 8.91667L28.5833 6.91667L30.3333 7.5C30.5 7.33333 30.6878 7.18722 30.8967 7.06167C31.1056 6.93611 31.3344 6.83222 31.5833 6.75L31.9167 5H34.25L34.5833 6.75C34.8333 6.83333 35.0628 6.93778 35.2717 7.06333C35.4806 7.18889 35.6678 7.33444 35.8333 7.5L37.5833 6.91667L38.75 8.91667L37.3333 10.1667C37.3889 10.3056 37.4167 10.4167 37.4167 10.5V11.1667C37.4167 11.25 37.3889 11.3611 37.3333 11.5L38.75 12.75L37.5833 14.75L35.8333 14.1667C35.6667 14.3333 35.4795 14.4794 35.2717 14.605C35.0639 14.7306 34.8344 14.8344 34.5833 14.9167L34.25 16.6667H31.9167ZM33.0833 12.9167C33.6667 12.9167 34.16 12.715 34.5633 12.3117C34.9667 11.9083 35.1678 11.4156 35.1667 10.8333C35.1656 10.2511 34.9639 9.75778 34.5617 9.35333C34.1594 8.94889 33.6667 8.74778 33.0833 8.75C32.5 8.75222 32.0067 8.95389 31.6033 9.355C31.2 9.75611 30.9989 10.2489 31 10.8333C31.0011 11.4178 31.2028 11.9111 31.605 12.3133C32.0072 12.7156 32.5 12.9167 33.0833 12.9167Z" fill="#FF8C00"/>
</svg>
